<svg xmlns="http://www.w3.org/2000/svg" width="24" height="22" viewBox="0 0 24 22"><g><g><path d="M.736.01l.485.09.324.066c.779.17 1.417.414 1.941.81.8.617 1.462 2.207 1.784 3.922l.322 1.7.643 3.284.325 1.627c.297 1.482 1.44 2.536 2.923 2.704l.222.018 1.512.016 6.793.015.006-.015.304-.008c1.476-.038 2.706-1.009 3.126-2.457l.246-.86.377-1.359.543-2.032c.204-.776-.237-1.414-1-1.49l-.138-.008-.73-.006-7.962-.003c-.445 0-.78-.279-.79-.644-.01-.382.329-.662.845-.682l1.55-.024 1.825-.007 4.181.017.861.014.45.014.075.004c1.45.086 2.505 1.535 2.153 2.959-.1.406-.199.796-.296 1.172l-.288 1.091c-.238.88-.473 1.694-.72 2.482-.576 1.844-2.392 3.16-4.338 3.17l-2.697.009-2.55.001-2.17-.005a653.8 653.8 0 0 1-1.06-.005c-2.317-.013-4.168-1.667-4.632-4.107l-.527-2.746-.559-2.856-.392-1.98A3.122 3.122 0 0 0 1.1 1.385L.909 1.36l-.192-.014C.33 1.326.067 1.182.007.84-.025.64.056.409.195.2.282.07.484-.007.658 0zm17.501 17.86c.867-.01 1.604.722 1.605 1.593.001.872-.734 1.615-1.594 1.608-.85-.006-1.561-.734-1.564-1.597-.003-.865.701-1.594 1.553-1.604zm-9.455 0c.852.004 1.564.728 1.567 1.592.003.877-.726 1.618-1.588 1.61-.845-.008-1.569-.743-1.573-1.597-.003-.871.728-1.608 1.594-1.605zm9.523-.513c-1.192-.012-2.115.897-2.128 2.092-.013 1.162.9 2.122 2.03 2.138a2.114 2.114 0 0 0 2.136-2.098c.008-1.106-.833-2.034-1.886-2.125zm-9.517 0a2.102 2.102 0 0 0-2.109 2.096c-.006 1.166.934 2.13 2.078 2.134 1.162.005 2.09-.925 2.098-2.103.008-1.127-.827-2.037-1.91-2.121zm9.52-.413c1.353.013 2.456 1.164 2.446 2.548A2.526 2.526 0 0 1 18.2 22c-1.358-.02-2.45-1.168-2.434-2.555.015-1.366 1.038-2.426 2.374-2.497zm-9.519 0c1.388.006 2.487 1.135 2.477 2.543-.01 1.405-1.121 2.518-2.51 2.513-1.373-.005-2.495-1.156-2.488-2.549a2.514 2.514 0 0 1 2.356-2.502z"/></g></g></svg>